name C:/MyDriveSym/Projects/mobilecap/Data\Session20210819_0002\mocap\ForceDataProcessed\walking4_forces.mot
datacolumns 19
datarows 27
range 1.04200000 1.05500000
endheader 
time	R_ground_force_vx	R_ground_force_vy	R_ground_force_vz	R_ground_force_px	R_ground_force_py	R_ground_force_pz	R_ground_torque_x	R_ground_torque_y	R_ground_torque_z	L_ground_force_vx	L_ground_force_vy	L_ground_force_vz	L_ground_force_px	L_ground_force_py	L_ground_force_pz	L_ground_torque_x	L_ground_torque_y	L_ground_torque_z	
          1.04200000	          0.00000000	          0.00000000	          0.00000000	          1.22621500	          0.00000000	         -0.22536900	          0.00000000	          0.00000000	          0.00000000	         34.26347300	        594.03443100	         29.29767500	          0.92340200	          0.00600000	         -0.34118300	          0.00000000	          3.70561000	          0.00000000	
          1.04250000	          0.00000000	          0.00000000	          0.00000000	          1.22770400	          0.00000000	         -0.22548400	          0.00000000	          0.00000000	          0.00000000	         34.65690800	        594.83929300	         29.31666200	          0.92349600	          0.00600000	         -0.34116200	          0.00000000	          3.71204400	          0.00000000	
          1.04300000	          0.00000000	          0.00000000	          0.00000000	          1.22919300	          0.00000000	         -0.22559900	          0.00000000	          0.00000000	          0.00000000	         35.05159000	        595.64259300	         29.33547600	          0.92359100	          0.00600000	         -0.34114200	          0.00000000	          3.71838500	          0.00000000	
          1.04350000	          0.00000000	          0.00000000	          0.00000000	          1.23068200	          0.00000000	         -0.22571500	          0.00000000	          0.00000000	          0.00000000	         35.44750900	        596.44424900	         29.35411600	          0.92368500	          0.00600000	         -0.34112200	          0.00000000	          3.72463400	          0.00000000	
          1.04400000	          0.00000000	          0.00000000	          0.00000000	          1.23217100	          0.00000000	         -0.22583000	          0.00000000	          0.00000000	          0.00000000	         35.84465300	        597.24418000	         29.37257700	          0.92377900	          0.00600000	         -0.34110100	          0.00000000	          3.73078900	          0.00000000	
          1.04450000	          0.00000000	          0.00000000	          0.00000000	          1.23366000	          0.00000000	         -0.22594600	          0.00000000	          0.00000000	          0.00000000	         36.24301200	        598.04230300	         29.39085900	          0.92387300	          0.00600000	         -0.34108100	          0.00000000	          3.73685000	          0.00000000	
          1.04500000	          0.00000000	          0.00000000	          0.00000000	          1.23514800	          0.00000000	         -0.22606100	          0.00000000	          0.00000000	          0.00000000	         36.64257400	        598.83853700	         29.40895700	          0.92396700	          0.00600000	         -0.34106100	          0.00000000	          3.74281500	          0.00000000	
          1.04550000	          0.00000000	          0.00000000	          0.00000000	          1.23663700	          0.00000000	         -0.22617600	          0.00000000	          0.00000000	          0.00000000	         37.04332800	        599.63279900	         29.42687000	          0.92406000	          0.00600000	         -0.34104100	          0.00000000	          3.74868400	          0.00000000	
          1.04600000	          0.00000000	          0.00000000	          0.00000000	          1.23812600	          0.00000000	         -0.22629200	          0.00000000	          0.00000000	          0.00000000	         37.44526300	        600.42500700	         29.44459500	          0.92415400	          0.00600000	         -0.34102100	          0.00000000	          3.75445700	          0.00000000	
          1.04650000	          0.00000000	          0.00000000	          0.00000000	          1.23961500	          0.00000000	         -0.22640700	          0.00000000	          0.00000000	          0.00000000	         37.84836600	        601.21507600	         29.46212800	          0.92424700	          0.00600000	         -0.34100100	          0.00000000	          3.76013200	          0.00000000	
          1.04700000	          0.00000000	          0.00000000	          0.00000000	          1.24110400	          0.00000000	         -0.22652200	          0.00000000	          0.00000000	          0.00000000	         38.25262600	        602.00292400	         29.47946700	          0.92434100	          0.00600000	         -0.34098100	          0.00000000	          3.76570800	          0.00000000	
          1.04750000	          0.00000000	          0.00000000	          0.00000000	          1.24259300	          0.00000000	         -0.22663800	          0.00000000	          0.00000000	          0.00000000	         38.65803000	        602.78846600	         29.49660900	          0.92443400	          0.00600000	         -0.34096100	          0.00000000	          3.77118500	          0.00000000	
          1.04800000	          0.00000000	          0.00000000	          0.00000000	          1.24408200	          0.00000000	         -0.22675300	          0.00000000	          0.00000000	          0.00000000	         39.06456600	        603.57162000	         29.51355100	          0.92452700	          0.00600000	         -0.34094100	          0.00000000	          3.77656200	          0.00000000	
          1.04850000	          0.00000000	          0.00000000	          0.00000000	          1.24557000	          0.00000000	         -0.22686900	          0.00000000	          0.00000000	          0.00000000	         39.47222200	        604.35230000	         29.53029100	          0.92462000	          0.00600000	         -0.34092100	          0.00000000	          3.78183900	          0.00000000	
          1.04900000	          0.00000000	          0.00000000	          0.00000000	          1.24705900	          0.00000000	         -0.22698400	          0.00000000	          0.00000000	          0.00000000	         39.88098500	        605.13042200	         29.54682600	          0.92471300	          0.00600000	         -0.34090200	          0.00000000	          3.78701300	          0.00000000	
          1.04950000	          0.00000000	          0.00000000	          0.00000000	          1.24854800	          0.00000000	         -0.22709900	          0.00000000	          0.00000000	          0.00000000	         40.29084100	        605.90590100	         29.56315100	          0.92480600	          0.00600000	         -0.34088200	          0.00000000	          3.79208600	          0.00000000	
          1.05000000	          0.00000000	          0.00000000	          0.00000000	          1.25003700	          0.00000000	         -0.22721500	          0.00000000	          0.00000000	          0.00000000	         40.70177900	        606.67865200	         29.57926600	          0.92489800	          0.00600000	         -0.34086300	          0.00000000	          3.79705500	          0.00000000	
          1.05050000	          0.00000000	          0.00000000	          0.00000000	          1.25152600	          0.00000000	         -0.22733000	          0.00000000	          0.00000000	          0.00000000	         41.11378300	        607.44858900	         29.59516600	          0.92499100	          0.00600000	         -0.34084300	          0.00000000	          3.80192100	          0.00000000	
          1.05100000	          0.00000000	          0.00000000	          0.00000000	          1.25301500	          0.00000000	         -0.22744500	          0.00000000	          0.00000000	          0.00000000	         41.52684200	        608.21562800	         29.61084900	          0.92508300	          0.00600000	         -0.34082400	          0.00000000	          3.80668300	          0.00000000	
          1.05150000	          0.00000000	          0.00000000	          0.00000000	          1.25450400	          0.00000000	         -0.22756100	          0.00000000	          0.00000000	          0.00000000	         41.94094000	        608.97968100	         29.62631100	          0.92517600	          0.00600000	         -0.34080500	          0.00000000	          3.81133900	          0.00000000	
          1.05200000	          0.00000000	          0.00000000	          0.00000000	          1.25599200	          0.00000000	         -0.22767600	          0.00000000	          0.00000000	          0.00000000	         42.35606500	        609.74066400	         29.64155100	          0.92526800	          0.00600000	         -0.34078500	          0.00000000	          3.81588900	          0.00000000	
          1.05250000	          0.00000000	          0.00000000	          0.00000000	          1.25748100	          0.00000000	         -0.22779200	          0.00000000	          0.00000000	          0.00000000	         42.77220200	        610.49848800	         29.65656300	          0.92536000	          0.00600000	         -0.34076600	          0.00000000	          3.82033300	          0.00000000	
          1.05300000	          0.00000000	          0.00000000	          0.00000000	          1.25897000	          0.00000000	         -0.22790700	          0.00000000	          0.00000000	          0.00000000	         43.18933700	        611.25306900	         29.67134700	          0.92545200	          0.00600000	         -0.34074700	          0.00000000	          3.82466900	          0.00000000	
          1.05350000	          0.00000000	          0.00000000	          0.00000000	          1.26045900	          0.00000000	         -0.22802200	          0.00000000	          0.00000000	          0.00000000	         43.60745500	        612.00431800	         29.68589800	          0.92554400	          0.00600000	         -0.34072800	          0.00000000	          3.82889800	          0.00000000	
          1.05400000	          0.00000000	          0.00000000	          0.00000000	          1.26194800	          0.00000000	         -0.22813800	          0.00000000	          0.00000000	          0.00000000	         44.02654200	        612.75215000	         29.70021300	          0.92563600	          0.00600000	         -0.34071000	          0.00000000	          3.83301800	          0.00000000	
          1.05450000	          0.00000000	          0.00000000	          0.00000000	          1.26343700	          0.00000000	         -0.22825300	          0.00000000	          0.00000000	          0.00000000	         44.44658200	        613.49647500	         29.71429000	          0.92572700	          0.00600000	         -0.34069100	          0.00000000	          3.83702800	          0.00000000	
          1.05500000	          0.00000000	          0.00000000	          0.00000000	          1.26492600	          0.00000000	         -0.22836800	          0.00000000	          0.00000000	          0.00000000	         44.86756100	        614.23720700	         29.72812600	          0.92581900	          0.00600000	         -0.34067200	          0.00000000	          3.84092900	          0.00000000	
